<svg xmlns="http://www.w3.org/2000/svg" viewBox="0 0 100 100" width="500" height="500">
  <!-- Transparent background; inner clipping leaves a 2% margin (2 units on a 100x100 viewBox) -->
  <defs>
    <clipPath id="inner-square">
      <rect x="2" y="2" width="96" height="96" />
    </clipPath>
  </defs>

  <!-- Diagonal lines (45°), evenly spaced across the inner square -->
  <g clip-path="url(#inner-square)" stroke="black" stroke-width="1.5" fill="none" stroke-linecap="square">
    <!-- Lines are y = x + k; k runs from -96 to 96 in 19 equal steps (20 lines total) -->
    <!-- Generated offsets (k): -96, -85.8947, -75.7895, -65.6842, -55.5789, -45.4737, -35.3684, -25.2632, -15.1579, -5.0526, 5.0526, 15.1579, 25.2632, 35.3684, 45.4737, 55.5789, 65.6842, 75.7895, 85.8947, 96 -->
    <line x1="-100" y1="-196" x2="200" y2="104" />
    <line x1="-100" y1="-185.8947" x2="200" y2="114.1053" />
    <line x1="-100" y1="-175.7895" x2="200" y2="124.2105" />
    <line x1="-100" y1="-165.6842" x2="200" y2="134.3158" />
    <line x1="-100" y1="-155.5789" x2="200" y2="144.4211" />
    <line x1="-100" y1="-145.4737" x2="200" y2="154.5263" />
    <line x1="-100" y1="-135.3684" x2="200" y2="164.6316" />
    <line x1="-100" y1="-125.2632" x2="200" y2="174.7368" />
    <line x1="-100" y1="-115.1579" x2="200" y2="184.8421" />
    <line x1="-100" y1="-105.0526" x2="200" y2="194.9474" />
    <line x1="-100" y1="-94.9474" x2="200" y2="205.0526" />
    <line x1="-100" y1="-84.8421" x2="200" y2="215.1579" />
    <line x1="-100" y1="-74.7368" x2="200" y2="225.2632" />
    <line x1="-100" y1="-64.6316" x2="200" y2="235.3684" />
    <line x1="-100" y1="-54.5263" x2="200" y2="245.4737" />
    <line x1="-100" y1="-44.4211" x2="200" y2="255.5789" />
    <line x1="-100" y1="-34.3158" x2="200" y2="265.6842" />
    <line x1="-100" y1="-24.2105" x2="200" y2="275.7895" />
    <line x1="-100" y1="-14.1053" x2="200" y2="285.8947" />
    <line x1="-100" y1="-4" x2="200" y2="296" />
  </g>
</svg>
