<?xml version="1.0" encoding="UTF-8"?>
<svg width="80" height="80" viewBox="0 0 80 80" xml:space="preserve" xmlns="http://www.w3.org/2000/svg">
    <path d="m20 0c-11.08-2.5066e-15 -20 8.9198-20 20v40c-2.5066e-15 11.08 8.9198 20 20 20h40c11.08 0 20-8.9198 20-20v-40-20h-20-40z" fill="#fff"/>
    <path d="m37.656 74.009c-4.8354-0.36436-9.6886-1.699-13.955-3.8378-3.4383-1.7236-6.4517-3.92-9.0933-6.628-7.0896-7.2676-10.055-17.334-8.1548-27.684 1.5646-8.5227 6.1202-15.614 12.927-20.122 6.4164-4.2497 14.836-6.2637 24.632-5.8922l2.1764 0.082493 0.71448-0.46162c2.8371-1.8331 5.781-2.7675 10.74-3.409 1.3469-0.17424 1.5334-0.18309 1.7288-0.082031 0.24019 0.1242 0.31608 0.26074 0.31608 0.56864 0 0.11136-0.4595 2.1736-1.0211 4.5828-1.0078 4.3233-1.0194 4.3838-0.89332 4.6483 0.07031 0.14737 0.50749 0.95627 0.97159 1.7975 0.4641 0.84128 0.96793 1.7581 1.1196 2.0374 0.15171 0.2793 1.5664 2.8457 3.1439 5.7031 1.5774 2.8574 3.8363 6.9531 5.0198 9.1016 3.237 5.8763 4.9952 9.0631 5.4255 9.8339 0.50792 0.90969 0.63287 1.4871 0.62769 2.9005-0.0037 0.91614-0.03691 1.2203-0.20664 1.8732-0.86524 3.328-3.915 6.1562-8.8068 8.167-1.1079 0.45544-2.3332 0.85827-2.6106 0.85827-0.25397 0-0.38898-0.15415-1.129-1.2891-1.3352-2.0478-3.9112-4.9986-6.541-7.4929-1.5045-1.427-2.0154-1.8499-5.6466-4.6744-4.6142-3.5891-6.2759-5.0009-8.48-7.2045-3.9949-3.9941-5.887-7.2765-6.1716-10.706-0.08995-1.0838 0.18839-2.7981 0.50585-3.1155 0.41619-0.41619 1.1662-0.01476 1.064 0.56953-0.02694 0.15422-0.06902 0.65348-0.09347 1.1095-0.03663 0.68284-0.01606 0.94126 0.11629 1.4648 0.63768 2.5217 3.041 5.405 7.3949 8.8718 2.0126 1.6025 3.381 2.5855 7.6172 5.4717 5.194 3.5387 5.6984 3.9377 8.1641 6.4574 2.308 2.3586 3.494 3.8269 4.3474 5.3817 0.22404 0.4082 0.4147 0.75294 0.42366 0.7661 0.03949 0.05785 1.0174-0.24498 1.6091-0.49822 2.5156-1.0767 4.1441-3.2328 4.6375-6.1402l0.12817-0.75512-2.3219-3.8933c-1.2771-2.1413-2.9627-4.9656-3.7459-6.2761-2.1258-3.5573-10.258-17.183-10.81-18.114-0.26416-0.44496-0.4989-0.88442-0.52166-0.97656-0.0251-0.10167 0.35524-1.304 0.96742-3.0582 1.1589-3.3208 1.1586-3.0658 0.0028-2.7713-1.7885 0.45585-3.5267 1.2861-7.057 3.3706-0.71397 0.4216-1.2524 0.68973-1.385 0.68973-0.11934 0-0.6484-0.06957-1.1757-0.15451-2.4739-0.39872-5.0621-0.55615-7.5603-0.45987-5.5228 0.21286-10.604 1.8776-14.844 4.8634-4.762 3.3535-8.8329 8.8527-10.751 14.524-2.991 8.8413-0.68144 19.066 6.03 26.696 4.991 5.6739 11.828 9.2927 19.487 10.315 1.578 0.21053 4.5386 0.28823 6.1195 0.16059 7.0509-0.56924 13.253-3.3262 18.267-8.1207 0.79159-0.75686 0.94438-0.87009 1.174-0.87009 0.61003 0 0.83436 0.48111 0.49462 1.0608-0.76303 1.302-2.9045 3.6393-4.5382 4.9532-4.0237 3.236-9.0858 5.1841-14.924 5.7434-1.1092 0.10625-4.5728 0.1453-5.655 0.06376z" stroke-width=".92274"/>
</svg>
