<svg width="200" height="200" xmlns="http://www.w3.org/2000/svg">
 <g id="Layer_1">
  <title>Layer 1</title>
  <rect id="svg_3" height="200" width="100" y="0" x="100" stroke="null" fill="#32a852"/>
  <rect id="svg_2" height="200" width="100" y="0" x="0" stroke="null" fill="#76db92"/>
  <g stroke="null">
   <path stroke="null" fill="none" d="m95.68182,50.04545l97.00001,0l0,96l-97.00001,0l0,-96z" class="st0"/>
   <path stroke="null" fill="#010101" d="m119.15343,135.37879l56.76297,0l-2.39506,-7.22963s-0.11975,-20.14815 -0.11975,-30.93333c0,-20.5037 -10.17901,-29.98519 -19.1605,-33.65926c-6.70617,-2.72593 -17.48395,-2.13333 -17.48395,-2.13333l3.95185,7.7037l-30.65679,24.05926l2.39506,14.45926l16.04691,4.14815l7.30494,-6.04444c1.43704,0.59259 2.99383,0.94815 4.43086,1.3037l0,0.35556s-17.12469,10.19259 -21.07654,27.97037zm14.13087,-48.23704c-0.71852,0.35556 -1.31728,-0.59259 -0.71852,-1.18519l8.62222,-7.34815l2.63457,4.38519l-10.53827,4.14815z" class="st1"/>
   <path stroke="null" fill="#6d6e6e" d="m114.60281,95.08249l1.55679,9.36296l5.6284,1.3037l-0.11975,-5.45185l-3.47284,-0.59259l-3.59259,-4.62222zm17.96296,-5.45185l18.68148,-4.5037l2.63457,-4.5037s3.35309,1.3037 2.51482,7.46667s-8.14321,9.83704 -14.49012,9.00741c-8.26296,-1.06667 -9.34074,-7.46667 -9.34074,-7.46667zm6.22716,40.88889c6.10741,-19.43704 19.63951,-15.40741 20.11852,-26.54815c-3.95185,6.99259 -12.81358,6.63704 -12.81358,6.63704s-13.89136,6.04444 -18.92099,19.91111l11.61605,0z" class="st2"/>
  </g>
  <g stroke="null">
   <path stroke="null" fill="#fff" d="m81.14912,120.90367l-3.75385,-32.025l10.08846,-9.61923l0,-13.02115l-13.02115,0l0,9.50192l-7.85962,0l0,-9.50192l-13.60769,0l0,9.50192l-7.85962,0l0,-9.50192l-13.02115,0l0,13.02115l10.08846,9.61923l-3.75385,32.025l-7.74231,0l0,13.60769l58.18461,0l0,-13.60769l-7.74231,0z" class="st0"/>
   <path stroke="null" fill="#cfcecf" d="m80.91451,121.25559l-4.92692,-31.90769l2.58077,0l8.91538,-10.08846l0,-13.02115l-6.80385,5.39615l0,9.61923l-30.85192,0l13.60769,8.09423l3.75385,0c0,14.19423 -3.28462,24.98654 -13.725,31.90769l15.60192,0l7.15577,12.08269l11.61346,0l0,-12.08269l-6.92115,0z" class="st1"/>
   <path stroke="null" d="m81.61836,119.37867l-3.05,-29.09231l10.20577,-10.55769l0,-15.01538l-15.71923,0l0,9.61923l-4.92692,0l0,-9.61923l-16.54038,0l0,9.61923l-4.92692,0l0,-9.61923l-16.07115,0l0,15.13269l10.20577,10.55769l-3.05,29.09231l-8.56346,0l0,16.54038l60.76538,0l0,-0.35192l0.23462,0l0,-16.30577l-8.56346,0zm-27.09808,-42.11346l0,-9.61923l10.55769,0l0,9.61923l10.79231,0l0,-9.61923l9.97115,0l0,10.90961l-9.73654,10.20577l-32.72884,0l-9.85385,-10.08846l0,-11.02692l10.08846,0l0,9.61923l10.90961,0zm21.11538,14.31154l3.05,27.80192l-37.89038,0l3.05,-27.80192l31.79038,0zm3.40192,30.73461l8.32885,0l0,10.675l-55.13461,0l0,-10.675l46.80577,0z"/>
  </g>
 </g>

</svg>
