<svg width="400" height="200" xmlns="http://www.w3.org/2000/svg">
 <g id="Layer_1">
  <title>Layer 1</title>
  <rect stroke="null" fill="#76db92" x="100" y="0" width="100" height="200" id="svg_3"/>
  <rect fill="#32a852" stroke="null" x="0" y="0" width="100" height="200" id="svg_2"/>
  <g id="svg_1" stroke="null">
   <path id="svg_4" class="st0" d="m95.68182,50.04545l97.00001,0l0,96l-97.00001,0l0,-96z" fill="none" stroke="null"/>
   <path id="svg_5" class="st1" d="m119.15343,135.37879l56.76297,0l-2.39506,-7.22963s-0.11975,-20.14815 -0.11975,-30.93333c0,-20.5037 -10.17901,-29.98519 -19.1605,-33.65926c-6.70617,-2.72593 -17.48395,-2.13333 -17.48395,-2.13333l3.95185,7.7037l-30.65679,24.05926l2.39506,14.45926l16.04691,4.14815l7.30494,-6.04444c1.43704,0.59259 2.99383,0.94815 4.43086,1.3037l0,0.35556s-17.12469,10.19259 -21.07654,27.97037l0,-0.00001zm14.13087,-48.23704c-0.71852,0.35556 -1.31728,-0.59259 -0.71852,-1.18519l8.62222,-7.34815l2.63457,4.38519l-10.53827,4.14815z" fill="#010101" stroke="null"/>
   <path id="svg_6" class="st2" d="m114.60281,95.08249l1.55679,9.36296l5.6284,1.3037l-0.11975,-5.45185l-3.47284,-0.59259l-3.59259,-4.62222l-0.00001,0zm17.96296,-5.45185l18.68148,-4.5037l2.63457,-4.5037s3.35309,1.3037 2.51482,7.46667s-8.14321,9.83704 -14.49012,9.00741c-8.26296,-1.06667 -9.34074,-7.46667 -9.34074,-7.46667l-0.00001,-0.00001zm6.22716,40.88889c6.10741,-19.43704 19.63951,-15.40741 20.11852,-26.54815c-3.95185,6.99259 -12.81358,6.63704 -12.81358,6.63704s-13.89136,6.04444 -18.92099,19.91111l11.61605,0z" fill="#6d6e6e" stroke="null"/>
  </g>
  <g id="svg_7" stroke="null">
   <path id="svg_8" class="st0" d="m81.14912,120.90367l-3.75385,-32.025l10.08846,-9.61923l0,-13.02115l-13.02115,0l0,9.50192l-7.85962,0l0,-9.50192l-13.60769,0l0,9.50192l-7.85962,0l0,-9.50192l-13.02115,0l0,13.02115l10.08846,9.61923l-3.75385,32.025l-7.74231,0l0,13.60769l58.18461,0l0,-13.60769l-7.74231,0l0.00002,0z" fill="#fff" stroke="null"/>
   <path id="svg_9" class="st1" d="m80.91451,121.25559l-4.92692,-31.90769l2.58077,0l8.91538,-10.08846l0,-13.02115l-6.80385,5.39615l0,9.61923l-30.85192,0l13.60769,8.09423l3.75385,0c0,14.19423 -3.28462,24.98654 -13.725,31.90769l15.60192,0l7.15577,12.08269l11.61346,0l0,-12.08269l-6.92115,0z" fill="#cfcecf" stroke="null"/>
   <path id="svg_10" d="m81.61836,119.37867l-3.05,-29.09231l10.20577,-10.55769l0,-15.01538l-15.71923,0l0,9.61923l-4.92692,0l0,-9.61923l-16.54038,0l0,9.61923l-4.92692,0l0,-9.61923l-16.07115,0l0,15.13269l10.20577,10.55769l-3.05,29.09231l-8.56346,0l0,16.54038l60.76538,0l0,-0.35192l0.23462,0l0,-16.30577l-8.56346,0l-0.00002,0zm-27.09808,-42.11346l0,-9.61923l10.55769,0l0,9.61923l10.79231,0l0,-9.61923l9.97115,0l0,10.90961l-9.73654,10.20577l-32.72884,0l-9.85385,-10.08846l0,-11.02692l10.08846,0l0,9.61923l10.90961,0l0.00001,0zm21.11538,14.31154l3.05,27.80192l-37.89038,0l3.05,-27.80192l31.79038,0zm3.40192,30.73461l8.32885,0l0,10.675l-55.13461,0l0,-10.675l46.80577,0l-0.00001,0z" stroke="null"/>
  </g>
  <rect id="svg_12" height="200" width="200" y="0" x="200" stroke-width="0" stroke="null" fill="#32a852"/>
  <g stroke="null">
   <path fill="#76db92" stroke="null" d="m223,100.5a68.5,68.5 0 1 1 137,0a68.5,68.5 0 0 1 -137,0zm64.21875,-59.27819c-5.73688,1.74675 -11.43094,7.02125 -16.15744,15.88344a68.24313,68.24313 0 0 0 -4.00725,9.14475l20.16469,0l0,-25.02819zm-29.19813,25.02819a79.34869,79.34869 0 0 1 5.48,-13.17769a57.36875,57.36875 0 0 1 5.11181,-7.98881a60.15156,60.15156 0 0 0 -26.304,21.1665l15.71219,0zm-4.98338,29.96875c0.25688,-7.50931 1.18163,-14.71038 2.6715,-21.40625l-18.37513,0a59.57788,59.57788 0 0 0 -5.617,21.40625l21.32063,0zm11.46519,-21.40625a107.03125,107.03125 0 0 0 -2.89413,21.40625l25.61044,0l0,-21.40625l-22.71631,0zm31.27881,0l0,21.40625l25.60188,0a106.98844,106.98844 0 0 0 -2.88556,-21.40625l-22.71631,0zm-34.16438,29.96875a107.03125,107.03125 0 0 0 2.88556,21.40625l22.71631,0l0,-21.40625l-25.60188,0zm34.16438,0l0,21.40625l22.71631,0c1.60119,-6.55031 2.62013,-13.7685 2.89413,-21.40625l-25.61044,0zm-28.72719,29.96875c1.18163,3.30513 2.52594,6.3705 4.00725,9.14475c4.7265,8.86219 10.42913,14.12813 16.15744,15.88344l0,-25.02819l-20.16469,0zm1.55838,21.1665a57.3345,57.3345 0 0 1 -5.11181,-7.98881a79.35725,79.35725 0 0 1 -5.48,-13.17769l-15.71219,0a60.143,60.143 0 0 0 26.304,21.1665zm-12.90369,-29.729a116.89525,116.89525 0 0 1 -2.6715,-21.40625l-21.32063,0c0.53088,7.62063 2.49169,14.83881 5.617,21.40625l18.37513,0zm58.67881,29.729a60.143,60.143 0 0 0 26.304,-21.1665l-15.71219,0a79.37438,79.37438 0 0 1 -5.48,13.17769a57.266,57.266 0 0 1 -5.11181,7.98881zm-18.60631,-21.1665l0,25.02819c5.73688,-1.74675 11.43094,-7.02125 16.15744,-15.88344c1.48131,-2.77425 2.82563,-5.83963 4.00725,-9.14475l-20.16469,0zm31.51,-8.5625l18.37513,0c3.12531,-6.56744 5.08613,-13.78563 5.617,-21.40625l-21.32063,0a116.87813,116.87813 0 0 1 -2.6715,21.40625zm23.99213,-29.96875a59.58644,59.58644 0 0 0 -5.617,-21.40625l-18.37513,0c1.48988,6.69588 2.41463,13.89694 2.6715,21.40625l21.32063,0zm-31.784,-43.14644c2.11494,3.973 3.95588,8.39125 5.48,13.17769l15.71219,0a60.143,60.143 0 0 0 -26.304,-21.1665c1.86663,2.43175 3.57913,5.12038 5.11181,7.98881zm-3.55344,13.17769a68.20888,68.20888 0 0 0 -4.00725,-9.14475c-4.7265,-8.86219 -10.42056,-14.12813 -16.15744,-15.88344l0,25.02819l20.16469,0z"/>
  </g>
  <g stroke="null">
   <path fill="#ffffff" stroke="null" d="m264.5,138s25.5,-24.1655 25.5,-42.5a25.5,25.5 0 0 0 -51,0c0,18.3345 25.5,42.5 25.5,42.5zm0,-29.75a12.75,12.75 0 1 1 0,-25.5a12.75,12.75 0 0 1 0,25.5z"/>
  </g>
  <g stroke="null">
   <path stroke="null" d="m324.5,120.33334s24.5,-23.21783 24.5,-40.83333a24.5,24.5 0 0 0 -49,0c0,17.6155 24.5,40.83333 24.5,40.83333zm0,-28.58333a12.25,12.25 0 1 1 0,-24.5a12.25,12.25 0 0 1 0,24.5z"/>
  </g>
 </g>

</svg>