<?xml version="1.0" encoding="utf-8" ?><svg xmlns="http://www.w3.org/2000/svg" xmlns:xlink="http://www.w3.org/1999/xlink" width="225" height="224" viewBox="0 0 225 224"><path fill="#010067" d="M0 0L225 0L225 224L0 224L0 0Z"/><path fill="#FEFEFE" d="M32.081 55.9861C39.4962 55.8001 46.914 55.7401 54.3312 55.806C58.2029 55.802 63.1532 55.9098 66.9187 55.5151C67.4469 59.3144 67.549 61.7317 67.5698 65.4953C67.6473 67.4131 67.8686 71.0583 66.6316 72.5584C65.9638 72.8089 66.2601 72.7901 65.47 72.52C64.6006 72.5051 63.718 72.4315 62.8595 72.3156C56.3641 71.4385 49.873 72.0434 43.3627 72.0509C42.5699 72.0519 42.0557 71.8839 41.4883 71.329C41.4558 80.1131 41.1547 88.5982 41.2341 97.4648L41.3055 103.132C41.2736 104.835 41.1919 106.794 41.2709 108.474L41.2301 134.595C41.2295 136.894 41.3774 144.562 41.105 146.621C42.3215 150.557 42.2806 157.661 40.7926 161.366C39.963 161.66 39.9759 161.501 38.9751 161.3C36.6692 161.083 32.9245 161.138 30.5018 161.109C28.9497 154.822 29.3073 143.731 29.308 136.917L29.3207 108.609L29.316 82.6124C29.3117 73.5368 28.5212 64.4675 32.081 55.9861Z"/><path fill="#09082D" d="M65.7984 70.6668L66.1503 71.1442C65.9552 71.8202 65.8504 71.9511 65.47 72.52C64.6006 72.5051 63.718 72.4315 62.8595 72.3156C56.3641 71.4385 49.873 72.0434 43.3627 72.0509C42.5699 72.0519 42.0557 71.8839 41.4883 71.329C42.58 70.4305 62.0009 71.4816 65.7984 70.6668Z"/><path fill="#8181A6" d="M38.9751 161.3C40.0333 156.09 40.6832 151.912 41.105 146.621C42.3215 150.557 42.2806 157.661 40.7926 161.366C39.963 161.66 39.9759 161.501 38.9751 161.3Z"/><path fill="#9E9EB0" d="M67.5698 65.4953C67.6473 67.4131 67.8686 71.0583 66.6316 72.5584C65.9638 72.8089 66.2601 72.7901 65.47 72.52C65.8504 71.9511 65.9552 71.8202 66.1503 71.1442L65.7984 70.6668C65.8336 70.1741 67.2796 66.3745 67.5698 65.4953Z"/><path fill="#5E5E60" d="M184.083 52.8188C183.12 59.3615 183.602 59.6781 185.888 65.6888C189.147 74.2581 194.043 83.6165 196.872 92.2218C196.213 94.2711 195.476 96.451 193.592 97.7441C190.046 100.65 178.706 89.6741 174.372 88.2199L174.075 88.8004C177.325 94.5524 186.538 102.901 186.06 108.743L185.776 109.223L184.561 109.058C181.522 109.31 177.43 109.151 174.264 109.158C166.829 109.183 159.393 109.136 151.959 109.017C153.114 84.5602 153.72 65.9084 180.531 56.0048C181.945 54.8623 182.848 54.1389 184.083 52.8188Z"/><path fill="#9E9EB0" d="M184.083 52.8188C183.12 59.3615 183.602 59.6781 185.888 65.6888C189.147 74.2581 194.043 83.6165 196.872 92.2218C196.213 94.2711 195.476 96.451 193.592 97.7441C193.115 96.5929 193.415 92.8533 193.058 91.2621C191.05 82.3248 185.711 74.2059 182.746 65.5331C181.576 62.1107 179.951 59.658 180.531 56.0048C181.945 54.8623 182.848 54.1389 184.083 52.8188Z"/><path fill="#9E9EB0" d="M184.561 109.058C183.477 106.134 180.326 100.912 178.4 98.4885C175.312 94.6022 171.537 91.1062 170.362 86.0263C169.857 83.8421 169.017 80.0854 169.42 77.937C170.491 78.2924 172.279 86.1959 173.977 88.6594L174.075 88.8004C177.325 94.5524 186.538 102.901 186.06 108.743L185.776 109.223L184.561 109.058Z"/><path fill="#FEFEFE" d="M100.086 114.132L100.552 113.876L100.402 114.012L100.549 113.633L100.039 113.321C100.914 112.438 110.716 112.813 111.627 113.336C111.111 113.335 110.7 113.227 110.389 113.494C111.211 113.697 111.314 113.549 111.814 114.282C112.539 115.345 112.23 122.239 111.951 123.156C111.898 123.329 111.837 123.499 111.767 123.666C111.481 132.477 111.692 142.607 111.699 151.522C115.486 150.718 131.959 151.56 136.708 151.917C137.474 151.974 137.831 153.314 137.876 154.181C138.045 156.787 138.099 157.972 137.683 160.533L137.838 160.702L137.73 161.006C136.81 161.375 134.189 161.273 133.055 161.297C123.099 161.508 113.105 160.697 103.172 161.559C100.766 161.768 98.9315 160.315 100.415 158C99.4622 153.922 99.7216 144.818 99.7154 140.302C99.7036 131.674 99.5866 122.727 100.086 114.132Z"/><path fill="#494871" d="M111.699 151.522C115.486 150.718 131.959 151.56 136.708 151.917C137.474 151.974 137.831 153.314 137.876 154.181C136.753 154.351 129.551 154.318 128.141 154.273C123.22 154.115 116.987 154.518 112.195 154.148C111.715 153.456 111.752 152.393 111.699 151.522Z"/><path fill="#02034F" d="M100.415 158L101.406 160.385C108.335 161.248 118.133 160.463 125.277 160.744C126.74 160.801 136.615 160.78 137.683 160.533L137.838 160.702L137.73 161.006C136.81 161.375 134.189 161.273 133.055 161.297C123.099 161.508 113.105 160.697 103.172 161.559C100.766 161.768 98.9315 160.315 100.415 158Z"/><path fill="#02034F" d="M100.086 114.132L100.552 113.876L100.402 114.012L100.549 113.633L100.039 113.321C100.914 112.438 110.716 112.813 111.627 113.336C111.111 113.335 110.7 113.227 110.389 113.494C111.211 113.697 111.314 113.549 111.814 114.282C112.539 115.345 112.23 122.239 111.951 123.156C111.898 123.329 111.837 123.499 111.767 123.666C111.647 120.538 111.563 117.409 111.513 114.28C108.627 114.243 102.667 114.448 100.086 114.132Z"/><path fill="#FEFEFE" d="M67.3655 114.28C74.2968 114.229 80.4521 114.225 87.3941 114.559C88.8395 123.218 88.3892 131.959 88.4121 140.746C88.4281 146.897 88.5636 154.486 87.8918 160.472C84.4576 160.608 80.3648 160.849 76.9921 160.657C75.6171 153.52 76.5794 142.77 76.3047 135.24C76.2315 133.236 76.4308 130.57 76.2333 128.623C75.7091 127.144 75.6126 124.845 75.4953 123.224C73.6963 121.477 69.3945 122.755 67.5902 121.262C67.0387 118.118 66.9544 117.404 67.3655 114.28Z"/><path fill="#02034F" d="M67.5902 121.262C70.0733 121.22 73.5372 121.079 75.941 121.223C76.1678 123.779 76.3354 126.038 76.2333 128.623C75.7091 127.144 75.6126 124.845 75.4953 123.224C73.6963 121.477 69.3945 122.755 67.5902 121.262Z"/><path fill="#FEFEFE" d="M176.88 138.67C177.506 137.83 177.571 137.517 178.8 137.378C180.647 137.169 187.058 136.752 188.446 137.759C188.714 138.472 188.731 138.61 188.816 139.357C189.767 143.751 190.251 155.361 187.73 159.247C187.518 159.571 187.295 159.887 187.061 160.195C179.622 160.432 171.799 160.256 164.326 160.294C160.994 160.31 154.262 160.528 151.186 160.209C150.734 159.636 150.663 159.392 150.407 158.735C149.152 156.488 149.683 151.783 152.939 151.416C156.212 151.047 159.603 151.199 162.904 151.214L175.653 151.169C175.793 148.282 175.747 140.863 176.88 138.67Z"/><defs><linearGradient id="gradient_0" gradientUnits="userSpaceOnUse" x1="164.33725" y1="155.16757" x2="165.53435" y2="146.67"><stop offset="0" stop-color="#4F4C6B"/><stop offset="1" stop-color="#5E677C"/></linearGradient></defs><path fill="url(#gradient_0)" d="M176.88 138.67L177.703 139.069L177.663 139.678L177.979 139.85C178.212 141.068 177.445 151.761 177.434 153.939C171.955 154.018 166.475 154.036 160.996 153.992C158.959 153.988 153.797 153.85 152.091 154.222C151.234 155.161 150.363 157.401 150.407 158.735C149.152 156.488 149.683 151.783 152.939 151.416C156.212 151.047 159.603 151.199 162.904 151.214L175.653 151.169C175.793 148.282 175.747 140.863 176.88 138.67Z"/><path fill="#494871" d="M176.88 138.67C177.506 137.83 177.571 137.517 178.8 137.378C180.647 137.169 187.058 136.752 188.446 137.759C188.714 138.472 188.731 138.61 188.816 139.357C186.477 139.378 179.814 139.296 177.979 139.85L177.663 139.678L177.703 139.069L176.88 138.67Z"/><path fill="#FEFEFE" d="M149.576 121.086C148.803 118.395 148.59 115.867 150.78 113.691L150.884 113.588C152.852 111.631 170.118 112.349 173.418 112.315C176.13 112.287 184.443 112.133 186.73 112.712C187.459 113.374 187.263 113.442 187.5 114.63C187.99 116.993 187.815 118.882 187.036 121.178L162.003 121.099C161.184 125.737 161.562 130.584 160.917 135.423C157.21 135.512 153.503 135.547 149.796 135.53C149.474 131.952 149.198 124.654 149.576 121.086Z"/><path fill="#494871" d="M149.576 121.086C148.803 118.395 148.59 115.867 150.78 113.691L150.884 113.588C152.852 111.631 170.118 112.349 173.418 112.315C176.13 112.287 184.443 112.133 186.73 112.712C187.459 113.374 187.263 113.442 187.5 114.63C176.761 114.203 164.886 114.729 154.061 114.878C151.267 114.917 149.909 118.681 149.576 121.086Z"/><path fill="#FEFEFE" d="M127.541 122.639C125.145 121.938 117.304 121.657 114.917 122.123L114.811 122.144C113.965 121.339 114.748 116.481 114.249 114.077L114.207 113.88L114.872 114.03C116.675 114.42 118.828 114.178 120.652 114.279C125.452 114.543 133.616 113.95 138.111 114.654C139.874 120 139.737 131.339 138.7 136.965C138.013 137.482 134.024 137.476 132.533 137.702L132.962 137.781C131.649 137.985 129.115 138.509 127.986 137.75C127.931 137.43 127.875 137.325 127.996 137.028C127.53 135.381 127.253 124.179 127.541 122.639Z"/><path fill="#02034F" d="M127.541 122.639C125.145 121.938 117.304 121.657 114.917 122.123L114.811 122.144C113.965 121.339 114.748 116.481 114.249 114.077L114.207 113.88L114.872 114.03C115.074 116.332 114.851 118.678 115.022 121.13C117.777 121.124 124.723 120.968 127.039 121.33C127.438 121.795 127.428 122.038 127.541 122.639Z"/><path fill="#02034F" d="M138.7 136.965C138.013 137.482 134.024 137.476 132.533 137.702L132.962 137.781C131.649 137.985 129.115 138.509 127.986 137.75C127.931 137.43 127.875 137.325 127.996 137.028C130.614 137.045 136.454 136.687 138.7 136.965Z"/><path fill="#FEFEFE" d="M57.2191 96.5467C58.146 97.3409 59.0638 100.454 59.3121 101.696C60.1533 105.904 59.4014 110.693 57.5665 114.544C53.3811 113.241 51.9872 114.106 48.3827 113.53C47.1102 113.544 45.0538 113.915 44.4189 112.782C44.1458 112.883 43.9462 112.879 43.6537 112.909C42.062 111.648 42.5173 110.73 42.1254 108.623C42.0451 109.619 41.9484 110.409 41.7925 111.396C41.5022 110.92 41.3545 109.135 41.2709 108.474C41.1919 106.794 41.2736 104.835 41.3055 103.132C41.7896 100.468 40.5765 99.0519 43.9951 98.3488L44.43 98.7021L44.7073 98.2219C45.7264 97.8162 51.4271 97.9607 52.9215 97.9694C55.0251 97.6134 55.6596 98.3665 57.2191 96.5467Z"/><path fill="#8181A6" d="M57.2191 96.5467C58.146 97.3409 59.0638 100.454 59.3121 101.696C60.1533 105.904 59.4014 110.693 57.5665 114.544C53.3811 113.241 51.9872 114.106 48.3827 113.53C49.8262 113.394 54.5381 113.812 55.3779 113.342C59.5453 111.009 57.2411 101.142 56.1056 98.0425L52.9215 97.9694C55.0251 97.6134 55.6596 98.3665 57.2191 96.5467Z"/><path fill="#09082D" d="M41.3055 103.132C41.7896 100.468 40.5765 99.0519 43.9951 98.3488L44.43 98.7021C43.4527 104.144 43.2971 107.241 44.4189 112.782C44.1458 112.883 43.9462 112.879 43.6537 112.909C42.062 111.648 42.5173 110.73 42.1254 108.623C42.0451 109.619 41.9484 110.409 41.7925 111.396C41.5022 110.92 41.3545 109.135 41.2709 108.474C41.1919 106.794 41.2736 104.835 41.3055 103.132Z"/><path fill="#FEFEFE" d="M73.6024 101.112C77.7573 100.928 82.5475 101.014 86.7539 101.018C86.7684 102.338 86.9396 107.311 86.39 108.115L85.9433 108.056C81.5059 107.849 77.0581 108.115 72.5106 107.816C72.4035 105.968 72.1341 103.187 72.8723 101.517C72.992 101.247 73.2236 101.253 73.6024 101.112Z"/><path fill="#02034F" d="M41.2341 97.4648C41.4694 96.8538 41.3492 96.8835 41.7911 96.557L43.1945 97.0905C45.4516 96.6926 55.1515 96.0565 57.2191 96.5467C55.6596 98.3665 55.0251 97.6134 52.9215 97.9694C51.4271 97.9607 45.7264 97.8162 44.7073 98.2219L44.43 98.7021L43.9951 98.3488C40.5765 99.0519 41.7896 100.468 41.3055 103.132L41.2341 97.4648Z"/></svg>